HIERARCHY
ROOT joint_Root
{
	OFFSET 0.0 0.0 0.0
	CHANNELS 6 Xposition Yposition Zposition Zrotation Xrotation Yrotation 
	JOINT Hips
	{
		OFFSET -17.1583 93.1646 452.98
		CHANNELS 6 Xposition Yposition Zposition Zrotation Xrotation Yrotation 
		JOINT Spine
		{
			OFFSET 15.7357 0.0 0.0
			CHANNELS 6 Xposition Yposition Zposition Zrotation Xrotation Yrotation 
			JOINT Chest
			{
				OFFSET 8.98455 -0.406207 0.0
				CHANNELS 6 Xposition Yposition Zposition Zrotation Xrotation Yrotation 
				JOINT Neck
				{
					OFFSET 16.3773 0.0 0.0
					CHANNELS 6 Xposition Yposition Zposition Zrotation Xrotation Yrotation 
					JOINT Head
					{
						OFFSET 6.45672 0.0 0.0
						CHANNELS 6 Xposition Yposition Zposition Zrotation Xrotation Yrotation 
						End Site
						{
							OFFSET 0.0 0.0 0.0
						}
					}
				}
				JOINT Shoulder_L
				{
					OFFSET 12.9942 -0.242716 4.98039
					CHANNELS 6 Xposition Yposition Zposition Zrotation Xrotation Yrotation 
					JOINT UpperArm_L
					{
						OFFSET 5.34809 0.0 0.0
						CHANNELS 6 Xposition Yposition Zposition Zrotation Xrotation Yrotation 
						JOINT LowerArm_L
						{
							OFFSET 24.3286 1.87007e-05 0.0
							CHANNELS 6 Xposition Yposition Zposition Zrotation Xrotation Yrotation 
							JOINT Hand_L
							{
								OFFSET 22.2916 0.0 0.0
								CHANNELS 6 Xposition Yposition Zposition Zrotation Xrotation Yrotation 
								End Site
								{
									OFFSET 0.0 0.0 0.0
								}
							}
						}
					}
				}
				JOINT Shoulder_R
				{
					OFFSET 12.9945 -0.242716 -4.98039
					CHANNELS 6 Xposition Yposition Zposition Zrotation Xrotation Yrotation 
					JOINT UpperArm_R
					{
						OFFSET -5.34813 0.0 0.0
						CHANNELS 6 Xposition Yposition Zposition Zrotation Xrotation Yrotation 
						JOINT LowerArm_R
						{
							OFFSET -24.3289 0.000322201 0.0
							CHANNELS 6 Xposition Yposition Zposition Zrotation Xrotation Yrotation 
							JOINT Hand_R
							{
								OFFSET -22.2915 -0.000108084 0.0
								CHANNELS 6 Xposition Yposition Zposition Zrotation Xrotation Yrotation 
								End Site
								{
									OFFSET 0.0 0.0 0.0
								}
							}
						}
					}
				}
			}
		}
		JOINT UpperLeg_L
		{
			OFFSET -2.19248 -6.46944 0.0
			CHANNELS 6 Xposition Yposition Zposition Zrotation Xrotation Yrotation 
			JOINT LowerLeg_L
			{
				OFFSET 39.0811 0.0 -1.23785e-05
				CHANNELS 6 Xposition Yposition Zposition Zrotation Xrotation Yrotation 
				JOINT Foot_L
				{
					OFFSET 40.9854 0.0 -1.26872e-05
					CHANNELS 6 Xposition Yposition Zposition Zrotation Xrotation Yrotation 
					JOINT Toes_L
					{
						OFFSET 11.7543 0.0 0.0
						CHANNELS 6 Xposition Yposition Zposition Zrotation Xrotation Yrotation 
						End Site
						{
							OFFSET 0.0 0.0 0.0
						}
					}
				}
			}
		}
		JOINT UpperLeg_R
		{
			OFFSET -2.19251 6.46944 0.0
			CHANNELS 6 Xposition Yposition Zposition Zrotation Xrotation Yrotation 
			JOINT LowerLeg_R
			{
				OFFSET -39.0811 -0.00228153 -0.0401928
				CHANNELS 6 Xposition Yposition Zposition Zrotation Xrotation Yrotation 
				JOINT Foot_R
				{
					OFFSET -40.9854 0.0 0.0
					CHANNELS 6 Xposition Yposition Zposition Zrotation Xrotation Yrotation 
					JOINT Toes_R
					{
						OFFSET -11.7543 0.0 0.0
						CHANNELS 6 Xposition Yposition Zposition Zrotation Xrotation Yrotation 
						End Site
						{
							OFFSET 0.0 0.0 0.0
						}
					}
				}
			}
		}
	}
}
MOTION
Frames:	8
Frame Time:	0.0333333
0.000000 0.000000 0.000000 0.000000 0.000000 -0.000000 -3.090870 91.919200 -2.513790 84.319900 0.258560 7.698590 15.735700 0.000005 -0.000001 79.607400 86.401400 -77.235500 8.984550 -0.406207 -0.000000 -0.651922 -1.472180 4.733330 16.377300 -0.000001 -0.000001 10.619000 3.533650 -3.645550 6.456720 -0.000001 -0.000000 -2.504790 4.016710 -2.381240 12.994200 -0.242716 4.980390 -93.131500 8.568790 -69.837800 5.348090 -0.000007 -0.000001 -73.110000 27.112000 0.628720 24.328600 0.000019 0.000005 11.160400 27.711000 -22.989500 22.291600 -0.000001 0.000005 -1.884150 4.990880 7.512720 12.994500 -0.242716 -4.980390 87.358700 6.786770 -68.675600 -5.348130 -0.000001 -0.000004 -70.514200 13.552700 -1.635140 -24.328900 0.000322 -0.000009 1.796520 5.112490 -19.401000 -22.291500 -0.000108 -0.000004 -2.081960 5.274350 0.781874 -2.192480 -6.469440 -0.000000 -173.378000 6.716000 -1.987090 39.081100 -0.000007 -0.000012 0.377652 -0.676234 29.182700 40.985400 -0.000006 -0.000013 -0.661929 2.182980 -75.488400 11.754300 -0.000000 0.000003 0.000394 0.160697 -10.059400 -2.192510 6.469440 -0.000001 -170.685000 8.205920 -175.050000 -39.081100 -0.002282 -0.040193 0.147354 -0.462700 17.290400 -40.985400 0.000008 0.000006 5.586560 1.976370 -71.149000 -11.754300 -0.000006 -0.000006 -0.010467 0.274763 -5.409540
0.000000 0.000000 0.000000 0.000000 0.000000 -0.000000 -3.073260 91.933600 -2.552910 84.277200 0.261376 7.655160 15.735700 0.000005 -0.000001 80.125500 86.399800 -77.727300 8.984550 -0.406207 -0.000000 -0.638183 -1.410320 4.786330 16.377300 -0.000001 -0.000001 10.540200 3.525910 -3.615660 6.456720 -0.000001 -0.000000 -2.566330 3.939610 -2.391950 12.994200 -0.242716 4.980390 -93.155800 8.607510 -69.776700 5.348090 -0.000007 -0.000001 -73.052800 27.206900 0.502451 24.328600 0.000019 0.000005 11.172300 27.677600 -23.035100 22.291600 -0.000001 0.000005 -1.899310 4.988350 7.566210 12.994500 -0.242716 -4.980390 87.356100 6.793060 -68.674400 -5.348130 -0.000001 -0.000004 -70.200800 12.512500 -1.496860 -24.328900 0.000322 -0.000009 2.426350 6.197090 -21.434800 -22.291500 -0.000108 -0.000004 -2.515060 5.226390 2.051690 -2.192480 -6.469440 -0.000000 -173.339000 6.742600 -2.041700 39.081100 -0.000007 -0.000012 0.375443 -0.673206 29.149100 40.985400 -0.000006 -0.000013 -0.655910 2.183700 -75.443900 11.754300 -0.000000 0.000003 0.000457 0.159542 -10.106200 -2.192510 6.469440 -0.000001 -170.650000 8.159270 -175.091000 -39.081100 -0.002282 -0.040193 0.142242 -0.448359 17.214800 -40.985400 0.000008 0.000006 5.498200 1.959070 -71.067800 -11.754300 -0.000006 -0.000006 -0.010874 0.277721 -5.288480
0.000000 0.000000 0.000000 0.000000 0.000000 -0.000000 -3.050250 91.938700 -2.588850 84.282400 0.323991 7.622830 15.735700 0.000005 -0.000001 80.255700 86.390700 -77.860900 8.984550 -0.406207 -0.000000 -0.617828 -1.396600 4.779980 16.377300 -0.000001 -0.000001 10.374000 3.528110 -3.559090 6.456720 -0.000001 -0.000000 -2.634900 3.907170 -2.231710 12.994200 -0.242716 4.980390 -93.165600 8.604010 -69.711600 5.348090 -0.000007 -0.000001 -73.000700 27.288700 0.458637 24.328600 0.000019 0.000005 11.232300 27.631700 -23.180200 22.291600 -0.000001 0.000005 -1.717350 4.984190 7.653880 12.994500 -0.242716 -4.980390 87.366100 6.759070 -68.651300 -5.348130 -0.000001 -0.000004 -70.027400 10.539800 -0.802611 -24.328900 0.000322 -0.000009 3.402780 7.185380 -25.429000 -22.291500 -0.000108 -0.000004 -3.240750 5.168960 3.487220 -2.192480 -6.469440 -0.000000 -173.363000 6.783160 -2.105470 39.081100 -0.000007 -0.000012 0.376293 -0.674811 29.146000 40.985400 -0.000006 -0.000013 -0.635921 2.191600 -75.428600 11.754300 -0.000000 0.000003 0.000465 0.159392 -10.112300 -2.192510 6.469440 -0.000001 -170.652000 8.157740 -175.156000 -39.081100 -0.002282 -0.040193 0.143650 -0.452891 17.215300 -40.985400 0.000008 0.000006 5.493790 1.865350 -71.065600 -11.754300 -0.000006 -0.000006 -0.011052 0.279005 -5.235920
0.000000 0.000000 0.000000 0.000000 0.000000 -0.000000 -3.030890 91.958100 -2.653970 84.266300 0.414761 7.487390 15.735700 0.000005 -0.000001 79.918300 86.389700 -77.520900 8.984550 -0.406207 -0.000000 -0.622197 -1.439110 4.784910 16.377300 -0.000001 -0.000001 10.083200 3.485710 -3.366050 6.456720 -0.000001 -0.000000 -2.826890 3.861880 -1.998800 12.994200 -0.242716 4.980390 -93.192900 8.664660 -69.681400 5.348090 -0.000007 -0.000001 -72.904200 27.108900 0.433453 24.328600 0.000019 0.000005 11.310000 27.668200 -23.302000 22.291600 -0.000001 0.000005 -1.816070 4.987410 7.585980 12.994500 -0.242716 -4.980390 87.405800 6.631530 -68.578300 -5.348130 -0.000001 -0.000004 -69.976100 8.337390 0.164651 -24.328900 0.000322 -0.000009 4.263590 7.147870 -30.930600 -22.291500 -0.000108 -0.000004 -3.459750 5.121830 4.610180 -2.192480 -6.469440 -0.000000 -173.335000 6.809420 -2.288740 39.081100 -0.000007 -0.000012 0.376372 -0.676202 29.101100 40.985400 -0.000006 -0.000013 -0.626691 2.229630 -75.379100 11.754300 -0.000000 0.000003 0.000287 0.162642 -9.980390 -2.192510 6.469440 -0.000001 -170.653000 8.183110 -175.335000 -39.081100 -0.002282 -0.040193 0.138556 -0.437232 17.186300 -40.985400 0.000008 0.000006 5.311030 1.921030 -70.975500 -11.754300 -0.000006 -0.000006 -0.011061 0.279068 -5.233340
0.000000 0.000000 0.000000 0.000000 0.000000 -0.000000 -3.009640 91.971100 -2.721170 84.287200 0.424142 7.355460 15.735700 0.000005 -0.000001 79.615100 86.384100 -77.232300 8.984550 -0.406207 -0.000000 -0.617398 -1.477550 4.755400 16.377300 -0.000001 -0.000001 9.780110 3.413110 -3.080500 6.456720 -0.000001 -0.000000 -3.114230 3.840190 -1.563070 12.994200 -0.242716 4.980390 -93.209600 8.708120 -69.676100 5.348090 -0.000007 -0.000001 -72.816100 27.027300 0.480072 24.328600 0.000019 0.000005 11.319800 27.549400 -23.403200 22.291600 -0.000001 0.000005 -1.869180 4.985980 7.616150 12.994500 -0.242716 -4.980390 87.470300 6.461730 -68.566600 -5.348130 -0.000001 -0.000004 -69.906900 6.346210 1.228680 -24.328900 0.000322 -0.000009 5.300360 6.928940 -37.565000 -22.291500 -0.000108 -0.000004 -3.212960 5.114960 4.769500 -2.192480 -6.469440 -0.000000 -173.335000 6.755820 -2.458230 39.081100 -0.000007 -0.000012 0.368004 -0.662450 29.053800 40.985400 -0.000006 -0.000013 -0.594551 2.305620 -75.267400 11.754300 -0.000000 0.000003 0.000423 0.160175 -10.080600 -2.192510 6.469440 -0.000001 -170.647000 8.121450 -175.516000 -39.081100 -0.002282 -0.040193 0.140376 -0.443450 17.174100 -40.985400 0.000008 0.000006 5.328880 1.851890 -70.952900 -11.754300 -0.000006 -0.000006 -0.011172 0.279866 -5.200680
0.000000 0.000000 0.000000 0.000000 0.000000 -0.000000 -2.986990 91.999800 -2.807980 84.246200 0.357875 7.241740 15.735700 0.000005 -0.000001 79.506800 86.369100 -77.109900 8.984550 -0.406207 -0.000000 -0.589761 -1.496900 4.783770 16.377300 -0.000001 -0.000001 9.382940 3.357410 -2.619740 6.456720 -0.000001 -0.000000 -3.483570 3.804580 -0.998560 12.994200 -0.242716 4.980390 -93.235500 8.807290 -69.735400 5.348090 -0.000007 -0.000001 -72.721100 27.001800 0.614243 24.328600 0.000019 0.000005 11.370200 27.526800 -23.514500 22.291600 -0.000001 0.000005 -1.805790 4.982820 7.682670 12.994500 -0.242716 -4.980390 87.538800 6.242830 -68.433000 -5.348130 -0.000001 -0.000004 -69.686800 5.237210 1.976080 -24.328900 0.000322 -0.000009 6.469510 6.600010 -44.614300 -22.291500 -0.000108 -0.000004 -2.220780 5.127660 4.474200 -2.192480 -6.469440 -0.000000 -173.279000 6.646350 -2.584460 39.081100 -0.000007 -0.000012 0.367983 -0.664715 28.969500 40.985400 -0.000006 -0.000013 -0.589348 2.301980 -75.177500 11.754300 -0.000000 0.000003 0.000490 0.158922 -10.131400 -2.192510 6.469440 -0.000001 -170.612000 7.959180 -175.672000 -39.081100 -0.002282 -0.040193 0.132268 -0.418434 17.126900 -40.985400 0.000008 0.000006 5.012190 1.839730 -70.811500 -11.754300 -0.000006 -0.000006 -0.011605 0.282929 -5.075290
0.000000 0.000000 0.000000 0.000000 0.000000 -0.000000 -2.962880 92.016300 -2.891180 84.211700 0.251326 7.064960 15.735700 0.000005 -0.000001 78.752600 86.367200 -76.341000 8.984550 -0.406207 -0.000000 -0.601832 -1.592810 4.812820 16.377300 -0.000001 -0.000001 8.885660 3.217240 -1.970610 6.456720 -0.000001 -0.000000 -3.836610 3.665740 -0.195614 12.994200 -0.242716 4.980390 -93.263200 8.921990 -69.815400 5.348090 -0.000007 -0.000001 -72.689400 26.714100 0.780759 24.328600 0.000019 0.000005 11.202600 27.365900 -23.308900 22.291600 -0.000001 0.000005 -1.970870 4.992090 7.487230 12.994500 -0.242716 -4.980390 87.627800 6.021640 -68.451100 -5.348130 -0.000001 -0.000004 -69.271800 4.680440 2.271280 -24.328900 0.000322 -0.000009 8.536350 6.756320 -51.902600 -22.291500 -0.000108 -0.000004 -1.310180 5.118890 4.677120 -2.192480 -6.469440 -0.000000 -173.244000 6.591400 -2.784860 39.081100 -0.000007 -0.000012 0.370067 -0.669163 28.944700 40.985400 -0.000006 -0.000013 -0.588275 2.244630 -75.128800 11.754300 -0.000000 0.000003 0.000478 0.159154 -10.122000 -2.192510 6.469440 -0.000001 -170.583000 7.914760 -175.883000 -39.081100 -0.002282 -0.040193 0.128990 -0.408907 17.083200 -40.985400 0.000008 0.000006 4.944560 1.956070 -70.673900 -11.754300 -0.000006 -0.000006 -0.010860 0.277624 -5.292470
0.000000 0.000000 0.000000 0.000000 0.000000 -0.000000 -2.931560 92.036200 -2.946630 84.183200 0.154883 6.882900 15.735700 0.000005 -0.000001 78.213600 86.370800 -75.799900 8.984550 -0.406207 -0.000000 -0.621087 -1.658860 4.816230 16.377300 -0.000001 -0.000001 8.413710 3.037640 -1.215420 6.456720 -0.000001 -0.000000 -4.479890 3.371990 1.044840 12.994200 -0.242716 4.980390 -93.281900 9.027710 -69.925700 5.348090 -0.000007 -0.000001 -72.619500 26.749700 0.979999 24.328600 0.000019 0.000005 11.199600 27.334100 -23.325600 22.291600 -0.000001 0.000005 -1.988140 4.983190 7.674840 12.994500 -0.242716 -4.980390 87.648700 5.949430 -68.389500 -5.348130 -0.000001 -0.000004 -68.665100 3.775320 2.244170 -24.328900 0.000322 -0.000009 11.524400 6.804600 -59.831500 -22.291500 -0.000108 -0.000004 -1.692510 5.052900 6.173930 -2.192480 -6.469440 -0.000000 -173.224000 6.578880 -2.975400 39.081100 -0.000007 -0.000012 0.368102 -0.666997 28.894300 40.985400 -0.000006 -0.000013 -0.610251 2.105130 -75.066500 11.754300 -0.000000 0.000003 0.000411 0.160390 -10.071800 -2.192510 6.469440 -0.000001 -170.587000 7.973820 -176.054000 -39.081100 -0.002282 -0.040193 0.126044 -0.401370 17.001000 -40.985400 0.000008 0.000006 4.883500 2.172760 -70.590400 -11.754300 -0.000006 -0.000006 -0.010587 0.275642 -5.373570
